<svg width="20" height="21" viewBox="0 0 20 21" fill="none" xmlns="http://www.w3.org/2000/svg">
<path d="M10.0013 11.3385C10.4615 11.3385 10.8346 10.9654 10.8346 10.5052C10.8346 10.045 10.4615 9.67188 10.0013 9.67188C9.54106 9.67188 9.16797 10.045 9.16797 10.5052C9.16797 10.9654 9.54106 11.3385 10.0013 11.3385Z" fill="#777777" stroke="#777777" stroke-width="1.5" stroke-linecap="round" stroke-linejoin="round"/>
<path d="M10.0013 5.49479C10.4615 5.49479 10.8346 5.1217 10.8346 4.66146C10.8346 4.20122 10.4615 3.82812 10.0013 3.82812C9.54106 3.82812 9.16797 4.20122 9.16797 4.66146C9.16797 5.1217 9.54106 5.49479 10.0013 5.49479Z" fill="#777777" stroke="#777777" stroke-width="1.5" stroke-linecap="round" stroke-linejoin="round"/>
<path d="M10.0013 17.1667C10.4615 17.1667 10.8346 16.7936 10.8346 16.3333C10.8346 15.8731 10.4615 15.5 10.0013 15.5C9.54106 15.5 9.16797 15.8731 9.16797 16.3333C9.16797 16.7936 9.54106 17.1667 10.0013 17.1667Z" fill="#777777" stroke="#777777" stroke-width="1.5" stroke-linecap="round" stroke-linejoin="round"/>
</svg>
