<svg width="20" height="21" viewBox="0 0 20 21" fill="none" xmlns="http://www.w3.org/2000/svg">
<path d="M16.1673 12.9948C16.0564 13.2461 16.0233 13.525 16.0723 13.7953C16.1213 14.0656 16.2502 14.3151 16.4423 14.5115L16.4923 14.5615C16.6473 14.7162 16.7702 14.9001 16.8541 15.1024C16.938 15.3047 16.9811 15.5216 16.9811 15.7406C16.9811 15.9597 16.938 16.1765 16.8541 16.3789C16.7702 16.5812 16.6473 16.765 16.4923 16.9198C16.3375 17.0748 16.1537 17.1977 15.9514 17.2816C15.7491 17.3654 15.5322 17.4086 15.3132 17.4086C15.0941 17.4086 14.8772 17.3654 14.6749 17.2816C14.4726 17.1977 14.2888 17.0748 14.134 16.9198L14.084 16.8698C13.8876 16.6777 13.6381 16.5488 13.3678 16.4998C13.0975 16.4508 12.8187 16.4839 12.5673 16.5948C12.3208 16.7004 12.1106 16.8758 11.9626 17.0994C11.8145 17.323 11.7351 17.585 11.734 17.8531V17.9948C11.734 18.4368 11.5584 18.8607 11.2458 19.1733C10.9333 19.4859 10.5093 19.6615 10.0673 19.6615C9.62529 19.6615 9.20137 19.4859 8.88881 19.1733C8.57625 18.8607 8.40065 18.4368 8.40065 17.9948V17.9198C8.3942 17.644 8.30492 17.3765 8.14441 17.152C7.9839 16.9276 7.7596 16.7567 7.50065 16.6615C7.2493 16.5505 6.97049 16.5174 6.70016 16.5665C6.42983 16.6155 6.18038 16.7443 5.98398 16.9365L5.93398 16.9865C5.7792 17.1414 5.59538 17.2644 5.39305 17.3482C5.19072 17.4321 4.97384 17.4753 4.75482 17.4753C4.53579 17.4753 4.31891 17.4321 4.11658 17.3482C3.91425 17.2644 3.73044 17.1414 3.57565 16.9865C3.42069 16.8317 3.29776 16.6479 3.21388 16.4455C3.13001 16.2432 3.08684 16.0263 3.08684 15.8073C3.08684 15.5883 3.13001 15.3714 3.21388 15.1691C3.29776 14.9667 3.42069 14.7829 3.57565 14.6281L3.62565 14.5781C3.81777 14.3817 3.94664 14.1323 3.99565 13.8619C4.04467 13.5916 4.01158 13.3128 3.90065 13.0615C3.79502 12.815 3.61961 12.6048 3.39604 12.4567C3.17246 12.3087 2.91047 12.2292 2.64232 12.2281H2.50065C2.05862 12.2281 1.6347 12.0525 1.32214 11.74C1.00958 11.4274 0.833984 11.0035 0.833984 10.5615C0.833984 10.1194 1.00958 9.69551 1.32214 9.38295C1.6347 9.07039 2.05862 8.89479 2.50065 8.89479H2.57565C2.85148 8.88834 3.11899 8.79906 3.3434 8.63855C3.56781 8.47804 3.73875 8.25374 3.83398 7.99479C3.94491 7.74345 3.978 7.46463 3.92899 7.1943C3.87997 6.92397 3.7511 6.67452 3.55898 6.47813L3.50898 6.42813C3.35402 6.27334 3.23109 6.08952 3.14722 5.88719C3.06334 5.68486 3.02017 5.46798 3.02017 5.24896C3.02017 5.02993 3.06334 4.81305 3.14722 4.61072C3.23109 4.40839 3.35402 4.22458 3.50898 4.06979C3.66377 3.91483 3.84759 3.7919 4.04992 3.70803C4.25225 3.62415 4.46913 3.58098 4.68815 3.58098C4.90718 3.58098 5.12405 3.62415 5.32639 3.70803C5.52872 3.7919 5.71253 3.91483 5.86732 4.06979L5.91732 4.11979C6.11372 4.31191 6.36316 4.44078 6.63349 4.4898C6.90382 4.53881 7.18264 4.50572 7.43398 4.39479H7.50065C7.74713 4.28916 7.95733 4.11375 8.1054 3.89018C8.25346 3.6666 8.33292 3.40461 8.33398 3.13646V2.99479C8.33398 2.55276 8.50958 2.12884 8.82214 1.81628C9.1347 1.50372 9.55862 1.32813 10.0007 1.32812C10.4427 1.32813 10.8666 1.50372 11.1792 1.81628C11.4917 2.12884 11.6673 2.55276 11.6673 2.99479V3.06979C11.6684 3.33795 11.7478 3.59994 11.8959 3.82351C12.044 4.04709 12.2542 4.22249 12.5007 4.32813C12.752 4.43905 13.0308 4.47214 13.3011 4.42313C13.5715 4.37411 13.8209 4.24524 14.0173 4.05313L14.0673 4.00313C14.2221 3.84816 14.4059 3.72523 14.6083 3.64136C14.8106 3.55749 15.0275 3.51431 15.2465 3.51431C15.4655 3.51431 15.6824 3.55749 15.8847 3.64136C16.087 3.72523 16.2709 3.84816 16.4257 4.00313C16.5806 4.15791 16.7035 4.34173 16.7874 4.54406C16.8713 4.74639 16.9145 4.96327 16.9145 5.18229C16.9145 5.40132 16.8713 5.6182 16.7874 5.82053C16.7035 6.02286 16.5806 6.20667 16.4257 6.36146L16.3757 6.41146C16.1835 6.60786 16.0547 6.85731 16.0056 7.12763C15.9566 7.39796 15.9897 7.67678 16.1007 7.92813V7.99479C16.2063 8.24127 16.3817 8.45147 16.6053 8.59954C16.8288 8.7476 17.0908 8.82706 17.359 8.82813H17.5007C17.9427 8.82813 18.3666 9.00372 18.6792 9.31628C18.9917 9.62884 19.1673 10.0528 19.1673 10.4948C19.1673 10.9368 18.9917 11.3607 18.6792 11.6733C18.3666 11.9859 17.9427 12.1615 17.5007 12.1615H17.4257C17.1575 12.1625 16.8955 12.242 16.6719 12.39C16.4484 12.5381 16.273 12.7483 16.1673 12.9948Z" stroke="#1C73E8" stroke-width="1.25" stroke-linecap="round" stroke-linejoin="round"/>
</svg>
